<?xml version="1.0" encoding="iso-8859-1"?>
<!-- Generator: Adobe Illustrator 17.1.0, SVG Export Plug-In . SVG Version: 6.00 Build 0)  -->
<!DOCTYPE svg PUBLIC "-//W3C//DTD SVG 1.1//EN" "http://www.w3.org/Graphics/SVG/1.1/DTD/svg11.dtd">
<svg version="1.1" id="Capa_1" xmlns="http://www.w3.org/2000/svg" xmlns:xlink="http://www.w3.org/1999/xlink" x="0px" y="0px"
	 viewBox="0 0 273.585 273.585" style="enable-background:new 0 0 273.585 273.585;" xml:space="preserve">
<g>
	<path style="fill:#000002;" d="M231.985,36.146h-43.794V18.5c0-10.201-8.299-18.5-18.5-18.5h-65.797
		c-10.201,0-18.5,8.299-18.5,18.5v17.646H41.6c-6.893,0-12.5,5.607-12.5,12.5v22.909c0,6.893,5.607,12.5,12.5,12.5h7.26v172.029
		c0,9.65,7.851,17.5,17.5,17.5h140.864c9.649,0,17.5-7.85,17.5-17.5V84.056h7.261c6.893,0,12.5-5.607,12.5-12.5V48.646
		C244.485,41.754,238.877,36.146,231.985,36.146z M100.394,18.5c0-1.897,1.603-3.5,3.5-3.5h65.797c1.897,0,3.5,1.603,3.5,3.5v17.646
		h-72.797V18.5z M209.724,256.085c0,1.355-1.145,2.5-2.5,2.5H66.36c-1.355,0-2.5-1.145-2.5-2.5V84.056h145.864V256.085z
		 M229.485,69.056H44.1V51.146h185.385V69.056z"/>
	<path style="fill:#000002;" d="M92.894,237.38c4.142,0,7.5-3.358,7.5-7.5V115.47c0-4.142-3.358-7.5-7.5-7.5
		c-4.143,0-7.5,3.358-7.5,7.5v114.41C85.394,234.022,88.751,237.38,92.894,237.38z"/>
	<path style="fill:#000002;" d="M136.793,237.38c4.143,0,7.5-3.358,7.5-7.5V115.47c0-4.142-3.357-7.5-7.5-7.5
		c-4.143,0-7.5,3.358-7.5,7.5v114.41C129.293,234.022,132.651,237.38,136.793,237.38z"/>
	<path style="fill:#000002;" d="M180.691,237.38c4.143,0,7.5-3.358,7.5-7.5V115.47c0-4.142-3.357-7.5-7.5-7.5
		c-4.143,0-7.5,3.358-7.5,7.5v114.41C173.191,234.022,176.548,237.38,180.691,237.38z"/>
</g>
<g>
</g>
<g>
</g>
<g>
</g>
<g>
</g>
<g>
</g>
<g>
</g>
<g>
</g>
<g>
</g>
<g>
</g>
<g>
</g>
<g>
</g>
<g>
</g>
<g>
</g>
<g>
</g>
<g>
</g>
</svg>
